#!OML:ASF I:\Actors\actors\Patient Classification 1\Patient 1\Session 1\Subject1.ASF
:FULLY-SPECIFIED
:DEGREES
1053
root 0.433721 17.588 7.93664 9.28901 -0.296287 -7.12435
lowerback 7.68728 0.760982 7.01441
upperback -7.28113 2.02812 0.514773
thorax -12.0514 0.390945 -3.73516
lowerneck -20.1065 -4.66441 -4.28391
upperneck 23.4421 -7.71169 8.93439
head 11.5252 -2.75452 2.77634
rclavicle -7.33018e-015 -8.34896e-015
rhumerus -39.5942 40.4859 -113.971
rradius 18.2737
rwrist 7.16508
rhand 32.0854 -31.3671
rfingers 7.12502
rthumb 55.5714 -49.0843
lclavicle -7.33018e-015 -8.34896e-015
lhumerus -33.3088 -22.4564 102.161
lradius 9.51296
lwrist -20.6139
lhand 4.351 -10.4631
lfingers 7.12502
lthumb 29.7508 17.169
rfemur -3.36137 25.8512 23.8596
rtibia 1.98133
rfoot -11.9359 -27.1842
rtoes 4.56544
lfemur 2.53827 -39.768 -10.4675
ltibia -3.85166
lfoot -13.4573 45.0951
ltoes 0.0389694
1054
root 0.435707 17.594 7.94282 9.26759 -0.367747 -7.18064
lowerback 7.583 0.797522 7.02037
upperback -7.30482 2.07179 0.528422
thorax -12.0098 0.413379 -3.72812
lowerneck -20.1941 -4.66256 -4.05007
upperneck 23.717 -7.71262 8.59061
head 11.6195 -2.76748 2.61218
rclavicle -7.90169e-015 -7.95139e-015
rhumerus -40.1955 41.3793 -114.228
rradius 18.9028
rwrist 5.73792
rhand 30.509 -31.2193
rfingers 7.12502
rthumb 54.164 -49.9459
lclavicle -7.90169e-015 -7.95139e-015
lhumerus -34.3502 -24.5727 103.003
lradius 10.7288
lwrist -18.5218
lhand 4.72216 -10.3754
lfingers 7.12502
lthumb 30.1049 17.1928
rfemur -3.30966 25.8018 23.9359
rtibia 1.96407
rfoot -11.9044 -27.0801
rtoes 4.37953
lfemur 2.68791 -39.8422 -10.5169
ltibia -3.89494
lfoot -13.5738 45.2357
ltoes 0.160187
1055
root 0.437724 17.6006 7.94836 9.23781 -0.428901 -7.18446
lowerback 7.5255 0.837524 7.03493
upperback -7.34669 2.12156 0.496543
thorax -12.0154 0.433097 -3.77836
lowerneck -20.102 -4.64789 -3.86189
upperneck 23.8318 -7.7053 8.37699
head 11.6258 -2.77371 2.50512
rclavicle -1.55797e-014 1.78906e-014
rhumerus -41.3468 42.7599 -115.033
rradius 19.8295
rwrist 3.84998
rhand 28.4671 -31.1758
rfingers 7.12502
rthumb 52.3237 -51.0872
lclavicle -1.55797e-014 1.78906e-014
lhumerus -36.0558 -28.3537 105.03
lradius 12.0621
lwrist -14.5847
lhand 4.79197 -10.0903
lfingers 7.12502
lthumb 30.1715 17.4658
rfemur -3.26529 25.7229 23.9434
rtibia 1.9568
rfoot -11.886 -26.9612
rtoes 4.37025
lfemur 2.80911 -39.8662 -10.6105
ltibia -3.91049
lfoot -13.6003 45.3282
ltoes 0.098987
1056
root 0.439764 17.6063 7.95468 9.21489 -0.464969 -7.17572
lowerback 7.47179 0.903703 7.06404
upperback -7.41356 2.20828 0.444149
thorax -12.0468 0.466494 -3.86588
lowerneck -20.0621 -4.79188 -4.67682
upperneck 24.0391 -7.91625 9.24177
head 11.7942 -2.83048 2.93523
rclavicle 1.0635e-014 -7.55382e-015
rhumerus -42.5234 43.792 -115.686
rradius 20.8317
rwrist 2.48734
rhand 26.2741 -30.9719
rfingers 7.12502
rthumb 50.3283 -52.0205
lclavicle 1.0635e-014 -7.55382e-015
lhumerus -38.0392 -31.8727 107.032
lradius 13.6523
lwrist -10.8305
lhand 4.59834 -9.44324
lfingers 7.12502
lthumb 29.9868 18.1464
rfemur -3.21635 25.7324 23.9485
rtibia 1.94738
rfoot -11.8708 -26.9561
rtoes 4.24128
lfemur 2.88464 -39.8604 -10.6806
ltibia -3.91125
lfoot -13.616 45.3551
ltoes 0.0930321
1057
root 0.441379 17.6111 7.96355 9.21924 -0.515556 -7.22172
lowerback 7.34366 1.00062 7.12203
upperback -7.48681 2.33474 0.397503
thorax -12.0343 0.518519 -3.96733
lowerneck -20.0891 -4.98687 -5.81051
upperneck 24.3196 -8.23094 10.5324
head 12.0589 -2.9073 3.57102
rclavicle -2.14936e-014 -8.34896e-015
rhumerus -41.5841 41.935 -113.775
rradius 21.1331
rwrist 3.99531
rhand 24.9263 -30.2038
rfingers 7.12502
rthumb 49.0935 -51.8898
lclavicle -2.14936e-014 -8.34896e-015
lhumerus -40.1735 -35.0129 108.899
lradius 15.4469
lwrist -7.10785
lhand 4.27444 -8.34762
lfingers 7.12502
lthumb 29.6777 19.2975
rfemur -3.19628 25.7582 24.0092
rtibia 1.94147
rfoot -11.8375 -26.9471
rtoes 4.06917
lfemur 2.90397 -39.8012 -10.6473
ltibia -3.88194
lfoot -13.778 45.3248
ltoes 0.320023
1058
root 0.443053 17.6157 7.97328 9.22201 -0.537592 -7.26646
lowerback 7.21554 1.08051 7.20363
upperback -7.56278 2.44168 0.354675
thorax -12.0268 0.559069 -4.0742
lowerneck -19.9721 -5.1868 -6.50272
upperneck 24.4165 -8.51043 11.2181
head 12.1745 -3.01362 3.90906
rclavicle 2.93953e-014 2.78299e-015
rhumerus -38.5928 36.3203 -109.144
rradius 20.6835
rwrist 9.25313
rhand 24.6067 -28.7651
rfingers 7.12502
rthumb 48.7998 -50.596
lclavicle 2.93953e-014 2.78299e-015
lhumerus -42.5136 -38.0078 110.782
lradius 17.3926
lwrist -3.09114
lhand 3.71695 -7.22263
lfingers 7.12502
lthumb 29.1454 20.516
rfemur -3.16294 25.7869 24.0671
rtibia 1.93543
rfoot -11.8849 -26.9283
rtoes 4.20985
lfemur 2.89426 -39.7207 -10.5975
ltibia -3.83169
lfoot -13.9098 45.2471
ltoes 0.500692
1059
root 0.446152 17.619 7.98616 9.17647 -0.512464 -7.20482
lowerback 7.10217 1.15459 7.21731
upperback -7.62949 2.53386 0.322222
thorax -12.0208 0.599239 -4.12938
lowerneck -19.7151 -5.23905 -6.65154
upperneck 24.4958 -8.56743 11.2519
head 12.1686 -3.05606 3.94284
rclavicle -1.96797e-014 -1.19271e-014
rhumerus -41.7396 40.9477 -111.98
rradius 22.7551
rwrist 2.01561
rhand 22.8856 -29.3606
rfingers 7.12502
rthumb 47.2132 -51.9323
lclavicle -1.96797e-014 -1.19271e-014
lhumerus -45.0494 -40.776 112.74
lradius 19.5246
lwrist 0.751795
lhand 3.14317 -6.22137
lfingers 7.12502
lthumb 28.5974 21.6109
rfemur -3.00591 25.7568 24.0353
rtibia 1.85835
rfoot -11.9523 -26.9249
rtoes 4.13036
lfemur 3.02781 -39.8135 -10.7887
ltibia -3.81551
lfoot -14.0359 45.2751
ltoes 0.633091
1060
root 0.45136 17.6225 8.00247 9.09616 -0.536109 -7.06787
lowerback 6.9791 1.26801 7.16659
upperback -7.69574 2.66971 0.284902
thorax -12.0037 0.66631 -4.16022
lowerneck -19.4098 -5.32568 -6.9046
upperneck 24.5832 -8.65402 11.3187
head 12.1664 -3.11918 4.00307
rclavicle -2.82523e-014 2.18663e-014
rhumerus -41.1753 39.1922 -109.979
rradius 23.439
rwrist 1.5579
rhand 22.2753 -29.0156
rfingers 7.12502
rthumb 46.6485 -51.8351
lclavicle -2.82523e-014 2.18663e-014
lhumerus -47.1238 -42.8355 114.263
lradius 21.2376
lwrist 3.26801
lhand 3.12566 -5.6871
lfingers 7.12502
lthumb 28.5806 22.148
rfemur -2.78153 25.6079 23.9236
rtibia 1.73932
rfoot -11.9461 -26.8145
rtoes 3.89088
lfemur 3.32668 -40.0018 -11.2122
ltibia -3.82853
lfoot -14.1376 45.4351
ltoes 0.598443
1061
root 0.455 17.6283 8.01382 9.0341 -0.597252 -7.01744
lowerback 6.94395 1.38213 7.18047
upperback -7.79601 2.82676 0.267693
thorax -12.0771 0.733995 -4.21272
lowerneck -19.1751 -5.41826 -7.12608
upperneck 24.7423 -8.75566 11.3499
head 12.205 -3.18665 4.04319
rclavicle -3.05631e-014 -3.02153e-014
rhumerus -41.0405 37.6967 -108.318
rradius 24.4275
rwrist 1.65602
rhand 22.0557 -29.0139
rfingers 7.12502
rthumb 46.4451 -51.9208
lclavicle -3.05631e-014 -3.02153e-014
lhumerus -49.6826 -45.1467 116.136
lradius 23.3231
lwrist 5.58106
lhand 3.60824 -5.40146
lfingers 7.12502
lthumb 29.0416 22.3551
rfemur -2.68001 25.4785 23.8798
rtibia 1.73305
rfoot -11.9156 -26.634
rtoes 3.8705
lfemur 3.51804 -39.9976 -11.4293
ltibia -3.8397
lfoot -14.1436 45.4778
ltoes 0.506122
